# xmcd
#
# Track frame offsets:
#	150
#	16914
#	32616
#	43596
#	63843
#	84804
#	102210
#	117234
#	134604
#	155555
#	172120
#	190552
#	202459
#	220222
#
# Disc length: 3093 seconds
#
# Revision: 1
# Processed by: cddbd v1.5.2PL0 Copyright (c) Steve Scherf et al.
# Submitted via: audiograbber 1.83.01
#
DISCID=be0c130e
DTITLE=Russel Burke - My Rifle, My Pony and Me
DYEAR=2005
DGENRE=Country
TTITLE0=Livin` On Love
TTITLE1=Amarillo By Morning
TTITLE2=On The Road Again
TTITLE3=I Am I Said
TTITLE4=Mr. Bojangles
TTITLE5=Grandpa`s House
TTITLE6=Thank God For The Radio
TTITLE7=If Tomorrow Never Comes
TTITLE8=Lay Lady Lay
TTITLE9=Mamas Don`t Let Your Babies
TTITLE10=The River
TTITLE11=My Rifle MY Pony and Me
TTITLE12=My Rifle My Pony and Me Revisited
TTITLE13=Daten-CD
EXTD=Russell B. Burke\n\nPullman City II
EXTT0=
EXTT1=
EXTT2=
EXTT3=
EXTT4=
EXTT5=
EXTT6=
EXTT7=
EXTT8=
EXTT9=
EXTT10=
EXTT11=
EXTT12=
EXTT13=
PLAYORDER=
